data:image/svg+xml,<svg xmlns="http://www.w3.org/2000/svg" viewBox="0 0 36 36"><path fill="#FFCC4D" d="M36 18c0 9.941-8.059 18-18 18-9.94 0-18-8.059-18-18C0 8.06 8.06 0 18 0c9.941 0 18 8.06 18 18"/><ellipse fill="#664500" cx="11.5" cy="14.5" rx="2.5" ry="3.5"/><ellipse fill="#664500" cx="24.5" cy="14.5" rx="2.5" ry="3.5"/><path fill="#664500" d="M8.665 27.871c-.497-.271-1.29-.158-1.414.331-.292 1.157 2.828 3.724 10.749 3.724 7.92 0 11.04-2.567 10.749-3.724-.124-.489-.917-.602-1.414-.331-2.844 1.551-6.095 1.717-9.335 1.717s-6.491-.166-9.335-1.717z"/><path fill="#F4F7F9" d="M7.251 28.202l.022-.009c2.819 1.536 6.044 1.7 9.259 1.7 3.241 0 6.492-.173 9.335-1.717.082-.044.169-.074.257-.097l-.145-.636c-2.844 1.551-6.095 1.717-9.335 1.717s-6.491-.166-9.335-1.717l-.058.759z"/><path fill="#664500" d="M11.5 21c-4.685 0-4.685-7 0-7s4.685 7 0 7zm13 0c-4.685 0-4.685-7 0-7s4.685 7 0 7z"/></svg>
